<?xml version="1.0" standalone="no"?>
<!DOCTYPE svg PUBLIC "-//W3C//DTD SVG 20010904//EN"
 "http://www.w3.org/TR/2001/REC-SVG-20010904/DTD/svg10.dtd">
<svg version="1.0" xmlns="http://www.w3.org/2000/svg"
 width="225.000000pt" height="225.000000pt" viewBox="0 0 225.000000 225.000000"
 preserveAspectRatio="xMidYMid meet">

<g transform="translate(0.000000,225.000000) scale(0.100000,-0.100000)"
fill="#000000" stroke="none">
<path d="M1000 2157 c-83 -41 -87 -42 -197 -44 -77 -1 -121 -7 -141 -17 -16
-8 -56 -49 -88 -91 -55 -70 -66 -79 -163 -127 -122 -61 -130 -72 -161 -204
-14 -61 -30 -104 -45 -123 -124 -146 -134 -176 -106 -295 26 -107 26 -131 1
-225 -11 -41 -20 -85 -20 -98 0 -38 24 -83 83 -157 50 -61 58 -77 77 -160 12
-50 23 -99 26 -108 8 -26 61 -74 104 -93 22 -10 37 -22 34 -26 -3 -5 2 -6 10
-3 22 9 72 -22 108 -67 72 -90 114 -133 145 -145 20 -9 71 -14 130 -14 95 0
101 -1 193 -45 121 -57 147 -57 259 -3 83 39 90 41 199 45 76 2 123 8 142 18
17 9 60 52 96 96 61 73 75 84 153 120 128 59 136 70 167 212 13 63 25 89 63
139 114 149 115 152 80 299 l-21 89 21 92 c32 140 30 155 -31 235 -28 37 -55
70 -58 73 -4 3 -13 16 -20 30 -13 24 -17 38 -39 144 -19 86 -37 106 -149 164
-94 48 -106 59 -162 130 -33 42 -70 84 -82 92 -16 9 -63 16 -143 20 -116 5
-123 7 -208 48 -116 55 -146 55 -257 -1z m53 -124 c-13 -2 -33 -2 -45 0 -13 2
-3 4 22 4 25 0 35 -2 23 -4z m185 0 c-10 -2 -28 -2 -40 0 -13 2 -5 4 17 4 22
1 32 -1 23 -4z m-265 -10 c-7 -2 -19 -2 -25 0 -7 3 -2 5 12 5 14 0 19 -2 13
-5z m340 0 c-7 -2 -21 -2 -30 0 -10 3 -4 5 12 5 17 0 24 -2 18 -5z m62 -13
c13 -5 14 -9 5 -9 -8 0 -24 4 -35 9 -13 5 -14 9 -5 9 8 0 24 -4 35 -9z m-586
-34 c-10 -9 -129 -66 -129 -61 0 6 111 64 124 65 5 0 7 -2 5 -4z m701 -6 c8
-5 11 -10 5 -10 -5 0 -17 5 -25 10 -8 5 -10 10 -5 10 6 0 17 -5 25 -10z m86
-48 c-5 -4 -66 26 -66 33 0 3 16 -3 35 -12 19 -9 33 -18 31 -21z m104 -68 c0
-3 -20 9 -45 26 -25 17 -45 33 -45 36 0 3 20 -9 45 -26 25 -17 45 -33 45 -36z
m-1085 13 c-79 -64 -139 -123 -183 -182 -56 -75 -72 -90 -44 -45 32 53 128
157 196 210 33 27 63 49 66 49 3 0 -13 -14 -35 -32z m1253 -177 c54 -66 136
-220 147 -275 3 -16 -5 -3 -18 31 -56 137 -100 206 -217 329 -62 66 -65 71
-20 30 31 -28 79 -79 108 -115z m-518 -90 c0 -5 -4 -10 -9 -10 -6 0 -13 5 -16
10 -3 6 1 10 9 10 9 0 16 -4 16 -10z m-1000 -40 c-11 -22 -23 -40 -25 -40 -3
0 4 18 15 40 11 22 23 40 25 40 3 0 -4 -18 -15 -40z m1160 0 c23 -15 0 -43
-44 -53 l-36 -9 0 -118 c0 -69 -4 -121 -10 -125 -6 -3 -19 -3 -30 0 -18 6 -20
15 -20 115 l0 109 -46 -2 -45 -2 6 -101 c8 -108 6 -111 -41 -120 -41 -7 -61
20 -95 125 -17 53 -32 98 -35 100 -2 2 -4 -41 -3 -97 0 -55 -4 -109 -10 -119
-9 -16 -12 -15 -23 15 -14 36 -24 41 -33 13 -7 -24 -57 -45 -87 -36 -33 10
-49 26 -64 60 l-13 30 -1 -47 c0 -26 5 -59 10 -73 8 -20 7 -26 -2 -23 -21 7
-50 78 -61 148 -14 98 -19 101 -33 28 -15 -78 -27 -103 -54 -118 -25 -13 -46
8 -59 58 -26 105 -24 102 -33 36 -13 -87 -54 -127 -92 -89 -13 14 -13 20 5 59
10 24 26 76 35 116 22 97 50 123 89 80 11 -12 22 -51 29 -102 l12 -83 18 69
c25 100 42 136 64 136 36 0 53 -34 60 -117 l6 -78 8 57 c9 68 29 112 63 134
23 15 27 15 50 0 16 -10 25 -26 25 -41 0 -21 -5 -25 -30 -25 -37 0 -50 -23
-50 -89 0 -50 20 -86 44 -78 19 6 37 51 31 80 -2 16 -1 25 4 22 5 -3 11 3 14
12 3 15 6 14 15 -7 9 -22 11 -18 11 30 1 64 21 100 56 100 28 0 53 -38 81
-120 l19 -55 3 80 c3 102 6 109 32 95 13 -7 26 -8 33 -3 7 5 35 10 63 11 28 2
64 7 80 12 39 11 66 12 84 0z m168 -32 c6 -6 12 -13 12 -17 0 -10 -52 -31 -76
-31 -12 0 -25 -7 -28 -16 -13 -33 -7 -40 29 -36 33 4 35 3 35 -27 0 -30 -2
-31 -41 -31 -38 0 -40 -1 -37 -27 3 -25 7 -28 46 -31 23 -2 40 -7 37 -13 -4
-5 0 -9 7 -9 8 -1 6 -6 -6 -15 -28 -21 -109 -20 -128 3 -18 20 -32 134 -18
148 5 5 10 31 12 59 3 46 5 50 33 56 36 8 105 1 123 -13z m-1367 -45 c-12 -20
-14 -14 -5 12 4 9 9 14 11 11 3 -2 0 -13 -6 -23z m-27 -77 c-3 -15 -8 -25 -11
-23 -2 3 -1 17 3 31 3 15 8 25 11 23 2 -3 1 -17 -3 -31z m1753 -88 c-3 -7 -5
-2 -5 12 0 14 2 19 5 13 2 -7 2 -19 0 -25z m-1780 -10 c-3 -8 -6 -5 -6 6 -1
11 2 17 5 13 3 -3 4 -12 1 -19z m1790 -40 c-3 -7 -5 -2 -5 12 0 14 2 19 5 13
2 -7 2 -19 0 -25z m-1800 -25 c-3 -10 -5 -4 -5 12 0 17 2 24 5 18 2 -7 2 -21
0 -30z m1810 -170 c-2 -32 -3 -6 -3 57 0 63 1 89 3 58 2 -32 2 -84 0 -115z
m-1820 30 c-2 -16 -4 -3 -4 27 0 30 2 43 4 28 2 -16 2 -40 0 -55z m1363 47 c0
-5 -4 -10 -10 -10 -5 0 -10 5 -10 10 0 6 5 10 10 10 6 0 10 -4 10 -10z m-1090
-130 c27 -27 26 -50 -2 -51 -20 0 -19 -2 7 -11 17 -6 42 -19 57 -30 36 -25 48
-16 48 36 0 55 17 70 79 69 59 -1 91 -10 91 -27 0 -16 -42 -36 -74 -36 -17 0
-25 -7 -28 -25 -6 -29 4 -39 31 -30 14 4 23 0 31 -15 16 -29 5 -40 -41 -40
-38 0 -40 -2 -37 -27 3 -25 8 -28 45 -31 27 -2 43 -9 47 -19 9 -23 -11 -33
-66 -33 -56 0 -88 24 -88 68 l0 27 -20 -32 c-26 -44 -63 -66 -110 -66 -41 0
-64 13 -81 44 -15 29 25 70 62 62 53 -10 83 39 32 52 -52 12 -73 33 -73 70 0
27 6 37 28 49 35 20 38 20 62 -4z m780 0 c11 -11 20 -32 20 -46 0 -14 11 -39
25 -56 14 -16 25 -39 26 -51 1 -12 6 5 13 38 15 72 29 100 61 121 23 15 27 15
50 0 16 -10 25 -26 25 -41 0 -21 -5 -25 -30 -25 -36 0 -50 -27 -50 -94 0 -31
6 -48 21 -62 21 -19 21 -18 41 6 13 16 18 35 16 57 -3 23 0 33 10 33 7 0 10 6
7 13 -4 6 1 3 9 -7 19 -24 21 -104 3 -127 -16 -21 -51 -39 -77 -39 -28 0 -80
52 -80 80 0 12 -4 18 -10 15 -5 -3 -10 -14 -10 -24 0 -31 -47 -66 -90 -66 -22
0 -45 6 -51 12 -18 18 -37 168 -28 216 11 64 59 87 99 47z m350 1 c5 -11 8
-26 6 -33 -2 -7 -7 -50 -10 -95 l-6 -83 35 0 c45 0 58 -25 26 -52 -26 -20 -81
-24 -113 -7 -19 10 -20 16 -12 82 4 40 7 95 5 123 -1 37 3 57 14 68 22 21 42
20 55 -3z m208 -35 c3 -23 0 -26 -28 -26 -24 0 -33 -6 -40 -26 -17 -45 -12
-109 10 -129 19 -17 22 -18 37 -2 10 10 17 33 18 56 0 21 3 37 8 34 4 -2 7 4
7 14 1 17 2 17 15 -1 19 -25 19 -89 0 -126 -30 -58 -114 -46 -148 20 -36 69
-5 198 53 227 32 16 64 -3 68 -41z m-1601 7 c-3 -10 -5 -4 -5 12 0 17 2 24 5
18 2 -7 2 -21 0 -30z m630 15 c5 -13 8 -51 5 -85 -6 -84 2 -113 32 -113 34 0
47 21 52 87 8 87 11 99 33 100 16 1 20 -7 26 -47 9 -64 -1 -122 -29 -162 -39
-58 -124 -60 -161 -5 -21 32 -38 187 -25 221 12 34 53 36 67 4z m1170 -40 c-3
-7 -5 -2 -5 12 0 14 2 19 5 13 2 -7 2 -19 0 -25z m-1790 -30 c-3 -8 -6 -5 -6
6 -1 11 2 17 5 13 3 -3 4 -12 1 -19z m1780 -20 c-3 -7 -5 -2 -5 12 0 14 2 19
5 13 2 -7 2 -19 0 -25z m-1748 -88 c0 -9 -4 -8 -9 5 -5 11 -9 27 -9 35 0 9 4
8 9 -5 5 -11 9 -27 9 -35z m1721 -5 c-16 -47 -23 -40 -8 8 6 20 13 35 16 33 2
-3 -1 -21 -8 -41z m-1690 -70 c0 -5 -5 -3 -10 5 -5 8 -10 20 -10 25 0 6 5 3
10 -5 5 -8 10 -19 10 -25z m1644 -37 c-78 -156 -246 -325 -394 -397 -57 -28
-30 -7 51 39 121 68 280 241 338 368 14 28 26 50 28 48 3 -2 -8 -28 -23 -58z
m-1614 -18 c11 -22 18 -40 15 -40 -2 0 -14 18 -25 40 -11 22 -18 40 -15 40 2
0 14 -18 25 -40z m45 -76 c9 -15 12 -23 6 -20 -11 7 -35 46 -28 46 3 0 12 -12
22 -26z m305 16 c0 -5 -2 -10 -4 -10 -3 0 -8 5 -11 10 -3 6 -1 10 4 10 6 0 11
-4 11 -10z m-90 -244 l45 -38 -45 33 c-58 42 -133 113 -173 164 -17 22 4 4 48
-41 44 -44 100 -97 125 -118z m156 -94 c-5 -4 -66 26 -66 33 0 3 16 -3 35 -12
19 -9 33 -18 31 -21z m744 -12 c-8 -5 -19 -10 -25 -10 -5 0 -3 5 5 10 8 5 20
10 25 10 6 0 3 -5 -5 -10z m-680 -10 c8 -5 11 -10 5 -10 -5 0 -17 5 -25 10 -8
5 -10 10 -5 10 6 0 17 -5 25 -10z m77 -26 c-3 -3 -12 -4 -19 -1 -8 3 -5 6 6 6
11 1 17 -2 13 -5z m488 -4 c-11 -5 -29 -8 -40 -8 -16 0 -15 2 5 8 34 11 60 11
35 0z m-448 -6 c-3 -3 -12 -4 -19 -1 -8 3 -5 6 6 6 11 1 17 -2 13 -5z m46 -11
c-7 -2 -19 -2 -25 0 -7 3 -2 5 12 5 14 0 19 -2 13 -5z m330 0 c-7 -2 -19 -2
-25 0 -7 3 -2 5 12 5 14 0 19 -2 13 -5z m-245 -10 c-10 -2 -26 -2 -35 0 -10 3
-2 5 17 5 19 0 27 -2 18 -5z m175 0 c-13 -2 -33 -2 -45 0 -13 2 -3 4 22 4 25
0 35 -2 23 -4z"/>
<path d="M1216 988 c-11 -33 -14 -158 -5 -158 6 0 8 -4 5 -9 -10 -15 23 -34
48 -27 39 10 44 79 6 91 -33 11 -45 33 -30 60 13 25 8 55 -10 55 -6 0 -12 -6
-14 -12z"/>
</g>
</svg>
